<svg width="132" height="132" viewBox="0 0 132 132" fill="none" xmlns="http://www.w3.org/2000/svg">
<path d="M2.34764 60.0834C-0.279956 65.1755 0.589874 70.9744 4.54033 74.9248C6.18938 76.5739 7.62097 77.4256 9.99487 78.2048C11.5714 78.7303 14.1628 78.7847 32.6466 78.8209L53.5587 78.8571L53.5949 99.733C53.6674 121.515 53.6855 121.714 55.2258 124.885C56.0594 126.625 58.3246 128.963 60.1367 129.941C64.0872 132.08 68.6175 132.116 72.5499 129.996C74.0177 129.216 76.6272 126.607 77.4245 125.121C79.0554 122.149 79.0736 121.769 79.0917 99.7511L79.146 78.8571L100.022 78.8209C114.591 78.7847 121.351 78.6578 122.329 78.3679C124.721 77.6793 126.479 76.6463 128.164 74.961C132.06 71.065 132.967 65.6285 130.575 60.5546C129.034 57.2746 126.117 54.8644 122.329 53.759C121.351 53.4691 114.591 53.3422 100.022 53.306L79.146 53.2698L79.0917 32.3758C79.0736 10.3583 79.0554 9.97779 77.4245 7.00588C76.6272 5.51993 74.0177 2.91045 72.6042 2.14935C68.6356 0.0291508 64.0509 0.0472718 60.1367 2.18559C58.3246 3.16415 56.0594 5.50181 55.2258 7.24146C53.6855 10.4127 53.6674 10.612 53.5949 32.3939L53.5587 53.2698L32.6466 53.306C14.1628 53.3422 11.5714 53.3966 9.99487 53.9221C9.01631 54.2483 7.71157 54.792 7.07733 55.1725C5.46452 56.0967 3.18123 58.4525 2.34764 60.0834Z" fill="#89BD23"/>
</svg>
